<svg xmlns="http://www.w3.org/2000/svg" viewBox="0 0 1280 720">
<rect width="1280" height="720" fill="#FAFAFA"/>

<rect x="40" y="20" width="770" height="46" rx="23" fill="#2563EB" fill-opacity="0.10" stroke="#2563EB" stroke-width="2"/>
<text x="425" y="51" text-anchor="middle" font-family="'Helvetica Neue', Helvetica, Arial, sans-serif" font-size="22" font-weight="600" fill="#2563EB">FetchSGD: Communication-Efficient Federated Learning with Sketching</text>
<rect x="1100" y="28" width="150" height="34" rx="17" fill="#2563EB" fill-opacity="0.08"/>
<text x="1175" y="53" text-anchor="middle" font-family="'Helvetica Neue', Helvetica, Arial, sans-serif" font-size="22" font-weight="600" fill="#2563EB">ICML 2020</text>

<!-- "Changed" box -->
<rect x="40" y="145" width="220" height="240" rx="16" fill="#3B5FE0" opacity="0.05" stroke="#3B5FE0" stroke-width="2"/>
<text x="150" y="183" text-anchor="middle" font-size="28" font-weight="700" fill="#3B5FE0" font-family="'Helvetica Neue', Helvetica, Arial, sans-serif">Changed</text>
<rect x="58"  y="210" width="28" height="148" rx="4" fill="#3B5FE0" opacity="0.7"/>
<rect x="94"  y="300" width="28" height="58"  rx="4" fill="#3B5FE0" opacity="0.7"/>
<rect x="130" y="270" width="28" height="88"  rx="4" fill="#3B5FE0" opacity="0.7"/>
<rect x="166" y="310" width="28" height="48"  rx="4" fill="#3B5FE0" opacity="0.7"/>
<rect x="202" y="320" width="28" height="38"  rx="4" fill="#3B5FE0" opacity="0.7"/>

<line x1="270" y1="275" x2="338" y2="275" stroke="#64748B" stroke-width="4"/>
<polygon points="338,267 354,275 338,283" fill="#64748B"/>

<!-- Top-K box -->
<rect x="355" y="195" width="160" height="160" rx="16" fill="#2D2D3F" opacity="0.04" stroke="#2D2D3F" stroke-width="1.5" stroke-opacity="0.15"/>
<text x="435" y="288" text-anchor="middle" font-size="36" font-weight="800" fill="#2D2D3F" opacity="0.5" font-family="'Helvetica Neue', Helvetica, Arial, sans-serif">Top-K</text>

<line x1="525" y1="245" x2="602" y2="245" stroke="#0d904f" stroke-width="4"/>
<polygon points="602,237 618,245 602,253" fill="#0d904f"/>

<!-- "Send" box -->
<rect x="620" y="175" width="170" height="200" rx="16" fill="#0d904f" opacity="0.05" stroke="#0d904f" stroke-width="2"/>
<text x="705" y="213" text-anchor="middle" font-size="28" font-weight="700" fill="#0d904f" font-family="'Helvetica Neue', Helvetica, Arial, sans-serif">Send</text>
<rect x="668" y="230" width="32" height="120" rx="4" fill="#0d904f" opacity="0.75"/>
<rect x="712" y="265" width="32" height="85"  rx="4" fill="#0d904f" opacity="0.75"/>

<!-- Vertical arrow down from Top-K -->
<g opacity="0.4">
  <line x1="435" y1="360" x2="435" y2="428" stroke="#c5221f" stroke-width="3.5"/>
  <polygon points="427,428 435,444 443,428" fill="#c5221f"/>
</g>

<!-- Dropped bars (matching original bar heights: 58, 48, 38) -->
<rect x="400" y="455" width="24" height="58" rx="4" fill="#c5221f" opacity="0.55"/>
<rect x="432" y="465" width="24" height="48" rx="4" fill="#c5221f" opacity="0.55"/>
<rect x="464" y="475" width="24" height="38" rx="4" fill="#c5221f" opacity="0.55"/>

<!-- Residual label next to bars -->
<text x="510" y="485" font-size="30" font-weight="700" fill="#c5221f" opacity="0.5" font-family="'Helvetica Neue', Helvetica, Arial, sans-serif">Residual</text>

<!-- Feedback arc -->
<g opacity="0.35">
  <path d="M 470,522 C 540,615 760,618 833,454" fill="none" stroke="#c5221f" stroke-width="3.5" stroke-dasharray="10 6"/>
  <polygon points="847,447 840,430 829,449" fill="#c5221f"/>
</g>

<!-- NEXT STEP box -->
<rect x="840" y="145" width="380" height="300" rx="16" fill="#2D2D3F" opacity="0.025" stroke="#2D2D3F" stroke-width="1.5" stroke-opacity="0.1"/>
<text x="1030" y="180" text-anchor="middle" font-size="28" font-weight="600" fill="#2D2D3F" opacity="0.4" font-family="'Helvetica Neue', Helvetica, Arial, sans-serif">Next step</text>

<rect x="870" y="200" width="320" height="220" rx="14" fill="#3B5FE0" opacity="0.04" stroke="#3B5FE0" stroke-width="1.5" stroke-opacity="0.5"/>

<rect x="895" y="265" width="26" height="130" rx="4" fill="#3B5FE0" opacity="0.65"/>
<rect x="928" y="325" width="26" height="70"  rx="4" fill="#3B5FE0" opacity="0.65"/>
<rect x="961" y="350" width="26" height="45"  rx="4" fill="#3B5FE0" opacity="0.65"/>
<rect x="994" y="310" width="26" height="85"  rx="4" fill="#3B5FE0" opacity="0.65"/>

<line x1="1035" y1="260" x2="1035" y2="410" stroke="#2D2D3F" stroke-width="1" opacity="0.08"/>

<rect x="1055" y="347" width="26" height="58" rx="4" fill="#c5221f" opacity="0.5"/>
<rect x="1088" y="357" width="26" height="48" rx="4" fill="#c5221f" opacity="0.5"/>
<rect x="1121" y="367" width="26" height="38" rx="4" fill="#c5221f" opacity="0.5"/>

</svg>