<svg viewBox="0 0 1280 720" xmlns="http://www.w3.org/2000/svg">
<rect width="1280" height="720" fill="#FAFAFA"/>
<g opacity="0.25">
<path d="M 161 176 Q 161 162 175 162 L 251 162 Q 265 162 265 176 L 265 240 L 213 298 L 161 240 Z" fill="#D1D5DB" stroke="#9CA3AF" stroke-width="4"/>
<text x="213" y="410" font-family="'Helvetica Neue', Helvetica, Arial, sans-serif" font-size="72" font-weight="700" fill="#9CA3AF" text-anchor="middle">Security</text>
<text y="475" font-family="'Helvetica Neue', Helvetica, Arial, sans-serif" font-size="40" font-weight="400" fill="#9CA3AF" text-anchor="middle"><tspan x="213" dy="0">Why do we need to</tspan><tspan x="213" dy="46">train our own agents?</tspan></text>
</g>
<g opacity="0.25">
<path d="M 640.0 190.0 L 652.1 169.2 L 663.7 172.7 L 662.2 196.7 L 668.3 201.7 L 691.6 195.6 L 697.3 206.3 L 679.2 222.2 L 680.0 230.0 L 700.8 242.1 L 697.3 253.7 L 673.3 252.2 L 668.3 258.3 L 674.4 281.6 L 663.7 287.3 L 647.8 269.2 L 640.0 270.0 L 627.9 290.8 L 616.3 287.3 L 617.8 263.3 L 611.7 258.3 L 588.4 264.4 L 582.7 253.7 L 600.8 237.8 L 600.0 230.0 L 579.2 217.9 L 582.7 206.3 L 606.7 207.8 L 611.7 201.7 L 605.6 178.4 L 616.3 172.7 L 632.2 190.8 Z" fill="#D1D5DB" stroke="#9CA3AF" stroke-width="4"/>
<circle cx="640" cy="230" r="17" fill="white" stroke="#9CA3AF" stroke-width="3"/>
<text x="640" y="410" font-family="'Helvetica Neue', Helvetica, Arial, sans-serif" font-size="72" font-weight="700" fill="#9CA3AF" text-anchor="middle">Systems</text>
<text y="475" font-family="'Helvetica Neue', Helvetica, Arial, sans-serif" font-size="40" font-weight="400" fill="#9CA3AF" text-anchor="middle"><tspan x="640" dy="0">How do we train</tspan><tspan x="640" dy="46">them efficiently?</tspan></text>
</g>
<line x1="1015" y1="198" x2="1067" y2="182" stroke="#7C3AED" stroke-width="2.5" opacity="0.5"/>
<line x1="1015" y1="198" x2="1067" y2="230" stroke="#7C3AED" stroke-width="2.5" opacity="0.5"/>
<line x1="1015" y1="198" x2="1067" y2="278" stroke="#7C3AED" stroke-width="2.5" opacity="0.5"/>
<line x1="1015" y1="262" x2="1067" y2="182" stroke="#7C3AED" stroke-width="2.5" opacity="0.5"/>
<line x1="1015" y1="262" x2="1067" y2="230" stroke="#7C3AED" stroke-width="2.5" opacity="0.5"/>
<line x1="1015" y1="262" x2="1067" y2="278" stroke="#7C3AED" stroke-width="2.5" opacity="0.5"/>
<line x1="1067" y1="182" x2="1119" y2="198" stroke="#7C3AED" stroke-width="2.5" opacity="0.5"/>
<line x1="1067" y1="182" x2="1119" y2="262" stroke="#7C3AED" stroke-width="2.5" opacity="0.5"/>
<line x1="1067" y1="230" x2="1119" y2="198" stroke="#7C3AED" stroke-width="2.5" opacity="0.5"/>
<line x1="1067" y1="230" x2="1119" y2="262" stroke="#7C3AED" stroke-width="2.5" opacity="0.5"/>
<line x1="1067" y1="278" x2="1119" y2="198" stroke="#7C3AED" stroke-width="2.5" opacity="0.5"/>
<line x1="1067" y1="278" x2="1119" y2="262" stroke="#7C3AED" stroke-width="2.5" opacity="0.5"/>
<circle cx="1015" cy="198" r="15" fill="#E9D5FF" stroke="#7C3AED" stroke-width="3"/>
<circle cx="1015" cy="262" r="15" fill="#E9D5FF" stroke="#7C3AED" stroke-width="3"/>
<circle cx="1067" cy="182" r="15" fill="#E9D5FF" stroke="#7C3AED" stroke-width="3"/>
<circle cx="1067" cy="230" r="15" fill="#E9D5FF" stroke="#7C3AED" stroke-width="3"/>
<circle cx="1067" cy="278" r="15" fill="#E9D5FF" stroke="#7C3AED" stroke-width="3"/>
<circle cx="1119" cy="198" r="15" fill="#E9D5FF" stroke="#7C3AED" stroke-width="3"/>
<circle cx="1119" cy="262" r="15" fill="#E9D5FF" stroke="#7C3AED" stroke-width="3"/>
<text x="1067" y="410" font-family="'Helvetica Neue', Helvetica, Arial, sans-serif" font-size="72" font-weight="700" fill="#7C3AED" text-anchor="middle">ML</text>
<text x="1067" y="475" font-family="'Helvetica Neue', Helvetica, Arial, sans-serif" font-size="40" font-weight="400" fill="#7C3AED" text-anchor="middle" opacity="0.6">What's next?</text>
<rect x="325" y="637" width="170" height="44" rx="22" fill="#F3F4F6" opacity="0.25"/>
<text x="410" y="670" font-family="'Helvetica Neue', Helvetica, Arial, sans-serif" font-size="32" font-weight="700" fill="#9CA3AF" text-anchor="middle" opacity="0.25">Security</text>
<text x="525" y="670" font-family="'Helvetica Neue', Helvetica, Arial, sans-serif" font-size="32" font-weight="400" fill="#AAAAAA" text-anchor="middle">▸</text>
<rect x="555" y="637" width="170" height="44" rx="22" fill="#F3F4F6" opacity="0.25"/>
<text x="640" y="670" font-family="'Helvetica Neue', Helvetica, Arial, sans-serif" font-size="32" font-weight="700" fill="#9CA3AF" text-anchor="middle" opacity="0.25">Systems</text>
<text x="755" y="670" font-family="'Helvetica Neue', Helvetica, Arial, sans-serif" font-size="32" font-weight="400" fill="#AAAAAA" text-anchor="middle">▸</text>
<rect x="785" y="637" width="170" height="44" rx="22" fill="#E9D5FF"/>
<text x="870" y="670" font-family="'Helvetica Neue', Helvetica, Arial, sans-serif" font-size="32" font-weight="700" fill="#7C3AED" text-anchor="middle">ML</text>
</svg>
