<svg xmlns="http://www.w3.org/2000/svg" viewBox="0 0 1280 720" font-family="'Helvetica Neue', Helvetica, Arial, sans-serif">
  <rect x="0" y="0" width="1280" height="720" fill="#FAFAFA"/>
  <text x="50" y="70" font-size="56" font-weight="800" fill="#1a73e8" font-family="'Helvetica Neue', Helvetica, Arial, sans-serif">Sample</text>
<g transform="translate(28, 105)">
    <rect x="0" y="0" width="190" height="310" rx="14" fill="#fff" stroke="#dadce0" stroke-width="2"/>
    <text x="95" y="46" text-anchor="middle" font-size="30" font-weight="700" fill="#333" font-family="'Helvetica Neue', Helvetica, Arial, sans-serif">Train GPT-2</text>
    <g transform="translate(25, 65)">
      <rect x="0" y="0" width="140" height="82" rx="5" fill="#f8f9fa"/>
      <line x1="18" y1="8" x2="18" y2="70" stroke="#dadce0" stroke-width="1.5"/>
      <line x1="18" y1="70" x2="128" y2="70" stroke="#dadce0" stroke-width="1.5"/>
      <path d="M 23 14 Q 48 24 66 40 Q 84 54 102 62 Q 116 66 125 68" fill="none" stroke="#1a73e8" stroke-width="2.8"/>
    </g>
    <g transform="translate(25, 160)">
      <rect x="0" y="0" width="140" height="58" rx="5" fill="#f8f9fa"/>
      <rect x="12" y="12" width="65" height="8" rx="2" fill="#1a73e8" opacity="0.2"/>
      <rect x="12" y="26" width="100" height="8" rx="2" fill="#1a73e8" opacity="0.15"/>
      <rect x="12" y="40" width="50" height="8" rx="2" fill="#1a73e8" opacity="0.2"/>
    </g>
    <g transform="translate(35, 232)">
      <rect x="0" y="0" width="120" height="55" rx="5" fill="#e8f0fe" stroke="#1a73e8" stroke-width="1"/>
      <rect x="10" y="10" width="40" height="14" rx="2" fill="#4285f4" opacity="0.4"/>
      <rect x="60" y="10" width="40" height="14" rx="2" fill="#4285f4" opacity="0.4"/>
      <rect x="10" y="30" width="40" height="14" rx="2" fill="#4285f4" opacity="0.3"/>
      <rect x="60" y="30" width="40" height="14" rx="2" fill="#4285f4" opacity="0.3"/>
    </g>
  </g>
  <text x="123" y="455" text-anchor="middle" font-size="36" font-weight="700" fill="#333" font-family="'Helvetica Neue', Helvetica, Arial, sans-serif">Task</text>
<line x1="228" y1="265" x2="292" y2="265" stroke="#5f6368" stroke-width="3.5"/>
  <polygon points="292,256 314,265 292,274" fill="#5f6368"/>
  <g transform="translate(320, 100)">
    <rect x="0" y="0" width="160" height="310" rx="16" fill="#fff" stroke="#1a73e8" stroke-width="3"/>
    <text x="80" y="170" text-anchor="middle" font-size="58" fill="#1a73e8" font-weight="800" font-family="'Helvetica Neue', Helvetica, Arial, sans-serif">π<tspan dy="14" font-size="38">infer</tspan></text>
  </g>
  <text x="400" y="448" text-anchor="middle" font-size="30" fill="#1a73e8" font-weight="600" font-family="'Helvetica Neue', Helvetica, Arial, sans-serif">Inference</text>
  <text x="400" y="482" text-anchor="middle" font-size="30" fill="#1a73e8" font-weight="600" font-family="'Helvetica Neue', Helvetica, Arial, sans-serif">Engine</text>
<text x="610" y="104" text-anchor="middle" font-size="34" fill="#4285f4" font-weight="700" font-family="'Helvetica Neue', Helvetica, Arial, sans-serif">prefill</text>
  <text x="940" y="104" text-anchor="middle" font-size="34" fill="#34a853" font-weight="700" font-family="'Helvetica Neue', Helvetica, Arial, sans-serif">decode</text>
<path d="M 480 195 Q 505 165 522 145" fill="none" stroke="#1a73e8" stroke-width="2" opacity="0.4"/>
  <path d="M 480 258 Q 505 258 522 262" fill="none" stroke="#1a73e8" stroke-width="2" opacity="0.4"/>
  <path d="M 480 320 Q 505 358 522 380" fill="none" stroke="#1a73e8" stroke-width="2" opacity="0.4"/>
<g transform="translate(524, 120)">
    <rect x="0" y="0" width="68" height="56" rx="8" fill="#4285f4" opacity="0.55"/><text x="34" y="36" text-anchor="middle" font-size="24" fill="#fff" font-weight="700" font-family="'Helvetica Neue', Helvetica, Arial, sans-serif">your</text>
    <rect x="74" y="0" width="62" height="56" rx="8" fill="#4285f4" opacity="0.55"/><text x="105" y="36" text-anchor="middle" font-size="24" fill="#fff" font-weight="700" font-family="'Helvetica Neue', Helvetica, Arial, sans-serif">task</text>
    <rect x="142" y="0" width="66" height="56" rx="8" fill="#4285f4" opacity="0.55"/><text x="175" y="36" text-anchor="middle" font-size="24" fill="#fff" font-weight="700" font-family="'Helvetica Neue', Helvetica, Arial, sans-serif">train</text>
    <rect x="214" y="0" width="66" height="56" rx="8" fill="#4285f4" opacity="0.55"/><text x="247" y="36" text-anchor="middle" font-size="24" fill="#fff" font-weight="700" font-family="'Helvetica Neue', Helvetica, Arial, sans-serif">gpt2</text>
  </g>
<g transform="translate(524, 236)">
    <rect x="0" y="0" width="68" height="56" rx="8" fill="#4285f4" opacity="0.55"/><text x="34" y="36" text-anchor="middle" font-size="24" fill="#fff" font-weight="700" font-family="'Helvetica Neue', Helvetica, Arial, sans-serif">your</text>
    <rect x="74" y="0" width="62" height="56" rx="8" fill="#4285f4" opacity="0.55"/><text x="105" y="36" text-anchor="middle" font-size="24" fill="#fff" font-weight="700" font-family="'Helvetica Neue', Helvetica, Arial, sans-serif">task</text>
    <rect x="142" y="0" width="66" height="56" rx="8" fill="#4285f4" opacity="0.55"/><text x="175" y="36" text-anchor="middle" font-size="24" fill="#fff" font-weight="700" font-family="'Helvetica Neue', Helvetica, Arial, sans-serif">train</text>
    <rect x="214" y="0" width="66" height="56" rx="8" fill="#4285f4" opacity="0.55"/><text x="247" y="36" text-anchor="middle" font-size="24" fill="#fff" font-weight="700" font-family="'Helvetica Neue', Helvetica, Arial, sans-serif">gpt2</text>
  </g>
<g transform="translate(524, 352)">
    <rect x="0" y="0" width="68" height="56" rx="8" fill="#4285f4" opacity="0.55"/><text x="34" y="36" text-anchor="middle" font-size="24" fill="#fff" font-weight="700" font-family="'Helvetica Neue', Helvetica, Arial, sans-serif">your</text>
    <rect x="74" y="0" width="62" height="56" rx="8" fill="#4285f4" opacity="0.55"/><text x="105" y="36" text-anchor="middle" font-size="24" fill="#fff" font-weight="700" font-family="'Helvetica Neue', Helvetica, Arial, sans-serif">task</text>
    <rect x="142" y="0" width="66" height="56" rx="8" fill="#4285f4" opacity="0.55"/><text x="175" y="36" text-anchor="middle" font-size="24" fill="#fff" font-weight="700" font-family="'Helvetica Neue', Helvetica, Arial, sans-serif">train</text>
    <rect x="214" y="0" width="66" height="56" rx="8" fill="#4285f4" opacity="0.55"/><text x="247" y="36" text-anchor="middle" font-size="24" fill="#fff" font-weight="700" font-family="'Helvetica Neue', Helvetica, Arial, sans-serif">gpt2</text>
  </g>
</svg>