<svg xmlns="http://www.w3.org/2000/svg" viewBox="0 0 1280 720">
  <rect width="1280" height="720" fill="#FAFAFA"/>
  <line x1="640" y1="80" x2="640" y2="560" stroke="#E2E8F0" stroke-width="1"/>

  <text x="310" y="115" text-anchor="middle" font-size="44" font-weight="700" fill="#2563EB"
        font-family="'Helvetica Neue', Helvetica, Arial, sans-serif">Inference</text>
  <text x="970" y="115" text-anchor="middle" font-size="44" font-weight="700" fill="#ea580c"
        font-family="'Helvetica Neue', Helvetica, Arial, sans-serif">Training</text>

  <!-- LHS leaves -->
  <rect x="100" y="155" width="80" height="48" rx="10" fill="#DBEAFE" stroke="#3b82f6" stroke-width="2"/>
  <text x="140" y="189" text-anchor="middle" font-size="30" font-weight="700" fill="#1E40AF"
        font-family="'SF Mono', 'Fira Code', 'Consolas', monospace">256</text>
  <rect x="250" y="155" width="60" height="48" rx="10" fill="#DBEAFE" stroke="#3b82f6" stroke-width="2"/>
  <text x="280" y="189" text-anchor="middle" font-size="30" font-weight="700" fill="#1E40AF"
        font-family="'SF Mono', 'Fira Code', 'Consolas', monospace">1</text>
  <rect x="440" y="155" width="60" height="48" rx="10" fill="#DBEAFE" stroke="#3b82f6" stroke-width="2"/>
  <text x="470" y="189" text-anchor="middle" font-size="30" font-weight="700" fill="#1E40AF"
        font-family="'SF Mono', 'Fira Code', 'Consolas', monospace">1</text>

  <!-- RHS leaves -->
  <rect x="770" y="155" width="60" height="48" rx="10" fill="#fff7ed" stroke="#f97316" stroke-width="2"/>
  <text x="800" y="189" text-anchor="middle" font-size="30" font-weight="700" fill="#9a3412"
        font-family="'SF Mono', 'Fira Code', 'Consolas', monospace">1</text>
  <rect x="900" y="155" width="60" height="48" rx="10" fill="#fff7ed" stroke="#f97316" stroke-width="2"/>
  <text x="930" y="189" text-anchor="middle" font-size="30" font-weight="700" fill="#9a3412"
        font-family="'SF Mono', 'Fira Code', 'Consolas', monospace">1</text>
  <rect x="1090" y="155" width="80" height="48" rx="10" fill="#fff7ed" stroke="#f97316" stroke-width="2"/>
  <text x="1130" y="189" text-anchor="middle" font-size="30" font-weight="700" fill="#9a3412"
        font-family="'SF Mono', 'Fira Code', 'Consolas', monospace">256</text>

  <!-- LHS first merge -->
  <line x1="140" y1="203" x2="195" y2="250" stroke="#3b82f6" stroke-width="2"/>
  <line x1="280" y1="203" x2="225" y2="250" stroke="#3b82f6" stroke-width="2"/>
  <circle cx="210" cy="264" r="18" fill="#DBEAFE" stroke="#3b82f6" stroke-width="2"/>
  <text x="210" y="272" text-anchor="middle" font-size="26" font-weight="700" fill="#2563EB"
        font-family="'Helvetica Neue', Helvetica, Arial, sans-serif">+</text>
  <rect x="170" y="298" width="80" height="48" rx="10" fill="#BFDBFE" stroke="#3b82f6" stroke-width="2.5"/>
  <text x="210" y="332" text-anchor="middle" font-size="30" font-weight="700" fill="#1E40AF"
        font-family="'SF Mono', 'Fira Code', 'Consolas', monospace">256</text>

  <!-- RHS first merge -->
  <line x1="800" y1="203" x2="855" y2="250" stroke="#f97316" stroke-width="2"/>
  <line x1="930" y1="203" x2="875" y2="250" stroke="#f97316" stroke-width="2"/>
  <circle cx="865" cy="264" r="18" fill="#fff7ed" stroke="#f97316" stroke-width="2"/>
  <text x="865" y="272" text-anchor="middle" font-size="26" font-weight="700" fill="#ea580c"
        font-family="'Helvetica Neue', Helvetica, Arial, sans-serif">+</text>
  <rect x="835" y="298" width="60" height="48" rx="10" fill="#fed7aa" stroke="#f97316" stroke-width="2.5"/>
  <text x="865" y="332" text-anchor="middle" font-size="30" font-weight="700" fill="#9a3412"
        font-family="'SF Mono', 'Fira Code', 'Consolas', monospace">2</text>

  <!-- LHS second merge -->
  <line x1="210" y1="346" x2="310" y2="393" stroke="#3b82f6" stroke-width="2"/>
  <line x1="470" y1="203" x2="340" y2="393" stroke="#3b82f6" stroke-width="2"/>
  <circle cx="325" cy="407" r="18" fill="#DBEAFE" stroke="#3b82f6" stroke-width="2"/>
  <text x="325" y="415" text-anchor="middle" font-size="26" font-weight="700" fill="#2563EB"
        font-family="'Helvetica Neue', Helvetica, Arial, sans-serif">+</text>
  <rect x="278" y="440" width="94" height="54" rx="12" fill="#2563EB" stroke="#1E40AF" stroke-width="2.5"/>
  <text x="325" y="477" text-anchor="middle" font-size="36" font-weight="800" fill="#ffffff"
        font-family="'SF Mono', 'Fira Code', 'Consolas', monospace">256</text>

  <!-- RHS second merge -->
  <line x1="865" y1="346" x2="965" y2="393" stroke="#f97316" stroke-width="2"/>
  <line x1="1130" y1="203" x2="995" y2="393" stroke="#f97316" stroke-width="2"/>
  <circle cx="980" cy="407" r="18" fill="#fff7ed" stroke="#f97316" stroke-width="2"/>
  <text x="980" y="415" text-anchor="middle" font-size="26" font-weight="700" fill="#ea580c"
        font-family="'Helvetica Neue', Helvetica, Arial, sans-serif">+</text>
  <rect x="933" y="440" width="94" height="54" rx="12" fill="#ea580c" stroke="#9a3412" stroke-width="2.5"/>
  <text x="980" y="477" text-anchor="middle" font-size="36" font-weight="800" fill="#ffffff"
        font-family="'SF Mono', 'Fira Code', 'Consolas', monospace">258</text>

</svg>