<svg xmlns="http://www.w3.org/2000/svg" viewBox="0 0 1280 720" font-family="'Helvetica Neue', Helvetica, Arial, sans-serif">
  <rect x="0" y="0" width="1280" height="720" fill="#f8f9fa" opacity="0.5"/>
  <text x="640" y="72" text-anchor="middle" font-size="46" font-weight="800" fill="#c5221f">min KL( <tspan fill="#7b61ff">π</tspan><tspan dy="8" font-size="30" fill="#7b61ff">infer</tspan><tspan dy="-8" fill="#222">(torch | import)</tspan><tspan fill="#c5221f">  ‖  </tspan><tspan fill="#1a73e8">π</tspan><tspan dy="8" font-size="30" fill="#1a73e8">train</tspan><tspan dy="-8" fill="#222">(torch | import)</tspan><tspan fill="#c5221f"> )</tspan></text>
<g transform="translate(30, 110)">
    <rect x="0" y="0" width="595" height="500" rx="18" fill="#fff" stroke="#c5221f" stroke-width="3.5"/>
    <text x="298" y="55" text-anchor="middle" font-size="48" fill="#c5221f" font-weight="800">✗  Off-policy</text>
    <!-- Legend -->
    <g transform="translate(40, 75)">
      <line x1="0" y1="12" x2="50" y2="12" stroke="#1a73e8" stroke-width="5"/>
      <text x="60" y="20" font-size="28" fill="#1a73e8" font-weight="700">π<tspan dy="5" font-size="19">train</tspan></text>
      <line x1="0" y1="48" x2="50" y2="48" stroke="#7b61ff" stroke-width="5" stroke-dasharray="10,5"/>
      <text x="60" y="56" font-size="28" fill="#7b61ff" font-weight="700">π<tspan dy="5" font-size="19">infer</tspan></text>
    </g>
    <!-- Curves shifted left -->
    <g transform="translate(20, 130)">
      <path d="M 10 280 Q 40 280 75 248 Q 120 188 155 82 Q 168 32 174 26 Q 180 32 196 82 Q 232 188 278 248 Q 315 280 350 280" fill="none" stroke="#1a73e8" stroke-width="5.5"/>
      <path d="M 170 280 Q 205 280 245 242 Q 295 178 332 72 Q 346 25 352 20 Q 358 25 376 72 Q 415 178 465 242 Q 500 280 520 280" fill="none" stroke="#7b61ff" stroke-width="5.5" stroke-dasharray="14,7"/>
      <rect x="190" y="28" width="148" height="248" rx="10" fill="#c5221f" opacity="0.05"/>
      <text x="80" y="318" text-anchor="middle" font-size="30" fill="#888">numpy</text>
      <text x="185" y="318" text-anchor="middle" font-size="30" fill="#333" font-weight="700">torch</text>
      <text x="360" y="318" text-anchor="middle" font-size="30" fill="#333" font-weight="700">tensorflow</text>
      <text x="480" y="318" text-anchor="middle" font-size="30" fill="#888">jax</text>
    </g>
  </g>
<g transform="translate(655, 110)">
    <rect x="0" y="0" width="595" height="500" rx="18" fill="#fff" stroke="#0d904f" stroke-width="3.5"/>
    <text x="298" y="55" text-anchor="middle" font-size="48" fill="#0d904f" font-weight="800">✓  On-policy</text>
    <g transform="translate(60, 130)">
      <path d="M 80 280 Q 120 278 170 245 Q 220 185 255 95 Q 268 42 274 30 Q 280 42 292 95 Q 325 185 375 245 Q 420 278 460 280 Z" fill="#0d904f" opacity="0.06"/>
      <path d="M 15 280 Q 60 280 115 245 Q 175 185 218 80 Q 235 30 242 24 Q 249 30 268 80 Q 312 185 372 245 Q 428 280 475 280" fill="none" stroke="#1a73e8" stroke-width="5.5"/>
      <path d="M 28 280 Q 72 280 125 242 Q 185 180 225 76 Q 240 28 248 22 Q 256 28 275 76 Q 318 180 378 242 Q 432 280 478 280" fill="none" stroke="#7b61ff" stroke-width="5.5" stroke-dasharray="14,7"/>
      <text x="140" y="318" text-anchor="middle" font-size="30" fill="#888">numpy</text>
      <text x="260" y="318" text-anchor="middle" font-size="30" fill="#333" font-weight="700">torch</text>
      <text x="380" y="318" text-anchor="middle" font-size="30" fill="#888">jax</text>
    </g>
  </g>
</svg>